<?xml version="1.0" encoding="utf-8"?>
<!-- Generator: Adobe Illustrator 25.2.3, SVG Export Plug-In . SVG Version: 6.00 Build 0)  -->
<svg version="1.1" id="Layer_1" xmlns="http://www.w3.org/2000/svg" xmlns:xlink="http://www.w3.org/1999/xlink" x="0px" y="0px"
	 viewBox="0 0 658.6 140.05" style="enable-background:new 0 0 658.6 140.05;" xml:space="preserve">
<style type="text/css">
	.st0{fill:#EEDAEA;stroke:#231F20;stroke-miterlimit:10;}
</style>
<g>
	<path class="st0" d="M223.54,30.97c-1.34-1.57-2.88-2.62-4.77-2.62c-7.6,0-11.23,16.91-11.23,42.07c0,27.39,4.72,39.71,11.23,39.71
		c3.73,0,6.81-3.15,9.15-9.04l0.65,1.57c-2.34,8.52-6.11,14.55-11.28,14.55c-8.35,0-14.12-15.86-14.12-45.48
		c0-28.44,5.37-48.89,15.36-48.89c3.83,0,6.31,2.23,8.05,5.11l-0.94,19.4h-0.85L223.54,30.97z"/>
	<path class="st0" d="M261.66,68.65c0,31.06-6.01,48.49-14.81,48.49c-8.75,0-14.76-17.17-14.76-47.18c0-28.7,5.67-47.05,15.06-47.05
		C255.74,22.91,261.66,40.99,261.66,68.65z M236.71,68.52c0,23.46,3.53,43.25,10.44,43.25c6.61,0,9.89-18.61,9.89-41.81
		c0-23.72-3.58-41.55-10.24-41.55C239.89,28.41,236.71,46.11,236.71,68.52z"/>
	<path class="st0" d="M270.46,29.27l-4.57-3.67v-2.1h9.69l10.64,74.44L296.9,23.5h9.29v2.23l-4.47,3.54l0.35,80.21l4.57,3.54v2.23
		h-13.37v-2.1l4.67-3.67l-0.3-73l-11.83,80.08h-1.04l-11.73-80.34l-0.2,73.27l4.57,3.67v2.1h-11.88v-2.1l4.57-3.67L270.46,29.27z"/>
	<path class="st0" d="M314.45,29.92l-4.27-3.67v-2.1h23.61l-0.75,19.92h-0.8l-1.74-14.42h-11.98v39.32h7.41l1.59-11.4h0.8v28.31
		h-0.75l-1.64-11.4h-7.41v35.78l5.22,3.41v2.23h-13.57v-2.1l4.27-3.67V29.92z"/>
	<path class="st0" d="M349.73,78.28l-10.14-48.36l-4.03-3.67v-2.1h12.67v2.23l-4.22,3.54l8.6,41.94l8-41.81l-4.08-3.67v-2.23h11.13
		v2.1l-4.82,3.8l-9.05,47.44v32.63l4.27,3.54v2.23h-12.58v-2.1l4.22-3.67V78.28z"/>
	<path class="st0" d="M389.85,71.86c-4.82-6.42-7.75-12.84-7.75-25.69c0-16.12,4.22-23.33,10.14-23.33c3.63,0,6.96,2.62,8.55,5.5
		l-0.7,17.82h-0.6l-1.59-14.81c-1.64-1.7-3.43-2.75-5.47-2.75c-4.32,0-6.66,4.98-6.66,15.6c0,7.86,1.74,12.58,6.61,19.53
		c7.21,10.09,9.84,14.81,9.84,29.62c0,15.86-4.62,23.85-11.18,23.85c-3.43,0-7.41-2.1-9.74-6.42l1.14-20.05h0.7l1.29,17.3
		c1.89,2.36,4.17,3.41,6.46,3.41c5.17,0,7.6-6.03,7.6-15.99C398.49,86.15,396.51,80.64,389.85,71.86z"/>
	<path class="st0" d="M432.79,110.79l3.68,3.67v2.1h-11.88v-2.23l3.83-3.54L425.83,91h-12.67l-2.63,19.79l3.98,3.54v2.23h-10.74
		v-2.1l4.13-3.67l11.98-87.29h0.99L432.79,110.79z M413.9,85.36h11.18l-5.62-42.2L413.9,85.36z"/>
	<path class="st0" d="M465.6,116.55l-19.88-77.33l-0.2,70.25l4.22,3.54v2.23h-11.18v-2.1l4.22-3.67l0.4-80.21l-4.27-3.67v-2.1h7.9
		l17.35,69.73l0.15-63.96l-4.22-3.54V23.5h11.23v2.1l-4.27,3.67l-0.35,87.29H465.6z"/>
	<path class="st0" d="M495.32,30.97c-1.34-1.57-2.88-2.62-4.77-2.62c-7.6,0-11.23,16.91-11.23,42.07c0,27.39,4.72,39.71,11.23,39.71
		c3.73,0,6.81-3.15,9.15-9.04l0.65,1.57c-2.34,8.52-6.11,14.55-11.28,14.55c-8.35,0-14.12-15.86-14.12-45.48
		c0-28.44,5.37-48.89,15.36-48.89c3.83,0,6.31,2.23,8.05,5.11l-0.94,19.4h-0.85L495.32,30.97z"/>
	<path class="st0" d="M513.01,30.05h-7.31l-2.04,14.15h-0.8l0.5-20.05h23.36l0.5,20.05h-0.8l-2.04-14.15h-7.31v80.08l4.27,3.54v2.23
		h-12.58v-2.1l4.22-3.67V30.05z"/>
	<path class="st0" d="M558.39,82.34c0,18.48-3.63,34.21-11.98,34.21c-8.25,0-12.28-15.47-12.28-34.6V29.27l-4.22-3.54V23.5h12.58
		v2.1l-4.22,3.67v52.69c0,13.76,2.24,27.78,8.85,27.78c6.36,0,8.8-13.63,8.8-27.39V29.27l-4.22-3.54V23.5h10.98v2.1l-4.22,3.67
		L558.39,82.34z"/>
	<path class="st0" d="M590.95,110.79l3.68,3.67v2.1h-11.88v-2.23l3.83-3.54L583.99,91h-12.67l-2.63,19.79l3.98,3.54v2.23h-10.74
		v-2.1l4.13-3.67l11.98-87.29h0.99L590.95,110.79z M572.06,85.36h11.18l-5.62-42.2L572.06,85.36z"/>
	<path class="st0" d="M601.09,29.92l-4.13-3.67v-2.1h11.78c8.3,0,13.67,6.95,13.67,25.29c0,14.68-3.08,22.41-7.9,25.43l7.75,35.26
		l4.62,3.67v2.1h-7.9l-8.5-39.71c-0.45,0.13-0.94,0.13-1.44,0.13h-3.88v33.81l4.18,3.54v2.23h-12.38v-2.1l4.13-3.67V29.92z
		 M605.16,70.81h4.27c5.42,0,8.55-5.37,8.55-21.1c0-15.2-3.63-20.05-9.34-20.05h-3.48V70.81z"/>
	<path class="st0" d="M640.16,78.28l-10.14-48.36l-4.03-3.67v-2.1h12.67v2.23l-4.22,3.54l8.6,41.94l8-41.81l-4.08-3.67v-2.23h11.13
		v2.1l-4.82,3.8l-9.05,47.44v32.63l4.27,3.54v2.23h-12.58v-2.1l4.22-3.67V78.28z"/>
	<g>
		<polygon class="st0" points="126.42,0.5 0.5,0.5 0.5,101.53 126.42,101.53 126.42,69.79 46.03,69.79 46.03,29.14 125.86,29.14 		
			"/>
		<polygon class="st0" points="56.85,34.78 183.76,34.78 183.76,139.55 56.85,139.55 56.85,106.63 137.87,106.63 137.87,64.49 
			57.41,64.49 		"/>
	</g>
</g>
</svg>
